<?xml version="1.0" encoding="utf-8"?>
<!-- Generator: Adobe Illustrator 14.0.0, SVG Export Plug-In . SVG Version: 6.00 Build 43363)  -->
<!DOCTYPE svg PUBLIC "-//W3C//DTD SVG 1.1//EN" "http://www.w3.org/Graphics/SVG/1.1/DTD/svg11.dtd">
<svg version="1.1" id="Layer_1" xmlns="http://www.w3.org/2000/svg" xmlns:xlink="http://www.w3.org/1999/xlink" x="0px" y="0px"
	 width="175.67px" height="20.176px" viewBox="0 0 175.67 20.176" enable-background="new 0 0 175.67 20.176" xml:space="preserve">
<g>
	<polygon fill-rule="evenodd" clip-rule="evenodd" fill="#0063AA" points="163.752,20.176 163.752,0 0,0 0,20.176 163.752,20.176 	
		"/>
	<polygon fill-rule="evenodd" clip-rule="evenodd" fill="#E7003C" points="175.67,20.176 175.67,0 163.783,0 163.783,20.176 
		175.67,20.176 	"/>
	<path fill-rule="evenodd" clip-rule="evenodd" fill="#FFFFFF" d="M16.657,8.53c-0.337,2.204-0.481,4.421-0.642,6.624
		c-0.257-0.043-0.514-0.072-0.754-0.072c-0.257,0-0.498,0.029-0.754,0.072c0.674-3.355,1.203-6.711,1.653-10.067
		c0.225,0.043,0.433,0.073,0.658,0.073c0.208,0,0.433-0.03,0.642-0.073c1.171,2.319,2.535,4.917,3.707,6.975
		c1.268-2.175,2.583-4.656,3.739-6.975c0.225,0.043,0.465,0.073,0.69,0.073c0.224,0,0.449-0.03,0.674-0.073
		c0.417,3.355,0.979,8.01,1.38,10.067c-0.433-0.043-0.866-0.072-1.3-0.072s-0.882,0.029-1.332,0.072
		c-0.112-2.027-0.385-4.508-0.642-6.77h-0.032c-1.203,2.262-2.391,4.508-3.546,6.77c-0.096-0.014-0.208-0.027-0.305-0.027
		c-0.096,0-0.208,0.014-0.304,0.027c-1.139-2.203-2.295-4.42-3.498-6.624H16.657L16.657,8.53z"/>
	<path fill-rule="evenodd" clip-rule="evenodd" fill="#FFFFFF" d="M39.397,15.154c-0.514-0.027-0.963-0.072-1.413-0.072
		c-0.449,0-0.915,0.045-1.364,0.072c-0.336-0.992-0.706-1.998-1.107-2.99c-0.69-0.016-1.364-0.029-2.054-0.029
		c-0.562,0-1.107,0.014-1.669,0.029c-0.433,0.992-0.787,1.984-1.091,2.99c-0.257-0.027-0.498-0.072-0.754-0.072
		c-0.257,0-0.498,0.045-0.802,0.072c0.786-1.619,3.193-6.814,4.573-10.14c0.208,0.029,0.401,0.073,0.609,0.073
		s0.401-0.044,0.61-0.073C36.3,8.34,38.177,12.777,39.397,15.154L39.397,15.154z M35.145,11.303
		c-0.466-1.182-0.915-2.335-1.428-3.473c-0.546,1.138-1.043,2.291-1.509,3.473H35.145L35.145,11.303z"/>
	<path fill-rule="evenodd" clip-rule="evenodd" fill="#FFFFFF" d="M41.186,9.128c0-1.633-0.032-2.757-0.128-4.041
		c0.353,0.029,0.786,0.073,1.316,0.073s0.962-0.044,1.316-0.073c-0.097,1.284-0.129,2.408-0.129,4.041v1.985
		c0,1.633,0.032,2.758,0.129,4.041c-0.354-0.027-0.786-0.072-1.316-0.072s-0.963,0.045-1.316,0.072
		c0.096-1.283,0.128-2.408,0.128-4.041V9.128L41.186,9.128z"/>
	<path fill-rule="evenodd" clip-rule="evenodd" fill="#FFFFFF" d="M49.021,10.515h-0.145v0.599c0,1.633,0.032,2.758,0.128,4.041
		c-0.353-0.027-0.786-0.072-1.315-0.072c-0.53,0-0.963,0.045-1.316,0.072c0.096-1.283,0.128-2.408,0.128-4.041V9.128
		c0-1.633-0.032-2.757-0.128-4.041c0.353,0.029,0.786,0.073,1.316,0.073c0.578,0,1.267-0.073,2.359-0.073
		c1.621,0,2.214,0.131,2.776,0.497c0.641,0.422,1.042,1.064,1.042,1.925c0,1.417-0.898,2.321-2.487,2.685
		c1.027,1.648,2.246,3.312,3.418,4.96c-0.481-0.027-0.962-0.072-1.444-0.072c-0.482,0-0.979,0.045-1.46,0.072L49.021,10.515
		L49.021,10.515z M48.925,5.919c-0.032,1.327-0.048,2.641-0.048,3.969c0.128,0.014,0.24,0.029,0.353,0.029
		c1.413,0,2.183-0.714,2.183-2.086C51.412,6.108,50.674,5.919,48.925,5.919L48.925,5.919z"/>
	<path fill-rule="evenodd" clip-rule="evenodd" fill="#FFFFFF" d="M56.812,9.128c0-1.633-0.032-2.757-0.128-4.041
		C57.038,5.117,57.471,5.161,58,5.161c0.529,0,0.963-0.044,1.316-0.073c-0.096,1.284-0.128,2.408-0.128,4.041v1.985
		c0,1.633,0.032,2.758,0.128,4.041c-0.353-0.027-0.787-0.072-1.316-0.072c-0.53,0-0.963,0.045-1.316,0.072
		c0.096-1.283,0.128-2.408,0.128-4.041V9.128L56.812,9.128z"/>
	<path fill-rule="evenodd" clip-rule="evenodd" fill="#FFFFFF" d="M62.217,9.128c0-1.633-0.032-2.757-0.128-4.041
		c0.947,0.015,1.91,0.073,2.856,0.073c1.572,0,2.92-0.03,3.354-0.073c-0.032,0.175-0.064,0.351-0.064,0.612
		c0,0.307,0.032,0.438,0.064,0.657c-1.219-0.074-3.145-0.176-3.626-0.176c-0.081,1.065-0.081,2.116-0.081,3.181
		c1.396-0.029,2.423-0.059,3.643-0.117c-0.063,0.336-0.08,0.467-0.08,0.656c0,0.161,0.032,0.292,0.08,0.599
		c-1.219-0.089-2.423-0.132-3.643-0.132c0,0.613-0.016,1.24-0.016,1.869c0,0.611,0.016,1.24,0.048,1.822
		c1.203,0,2.438-0.059,3.674-0.189c-0.032,0.203-0.064,0.35-0.064,0.656s0.032,0.453,0.064,0.627
		c-0.578-0.014-1.332-0.072-2.808-0.072c-2.615,0-3.049,0.045-3.402,0.072c0.096-1.283,0.128-2.408,0.128-4.041V9.128L62.217,9.128z
		"/>
	<path fill-rule="evenodd" clip-rule="evenodd" fill="#FFFFFF" d="M75.036,9.128c0-1.633-0.032-2.757-0.129-4.041
		c0.354,0.029,0.786,0.073,1.315,0.073c0.707,0,1.494-0.073,2.904-0.073c3.659,0,6.179,1.065,6.179,4.742
		c0,3.209-2.536,5.325-5.552,5.325c-1.605,0-2.696-0.072-3.531-0.072c-0.529,0-0.962,0.045-1.315,0.072
		c0.097-1.283,0.129-2.408,0.129-4.041V9.128L75.036,9.128z M77.411,11.434c0,0.789,0,2.568,0.016,2.846
		c0.321,0.016,0.754,0.045,1.412,0.045c2.408,0,3.931-1.49,3.931-4.524c0-2.393-1.459-3.881-3.674-3.881
		c-0.769,0-1.17,0.029-1.668,0.073c-0.016,0.276-0.016,2.058-0.016,2.845V11.434L77.411,11.434z"/>
	<path fill-rule="evenodd" clip-rule="evenodd" fill="#FFFFFF" d="M87.667,9.128c0-1.633-0.032-2.757-0.128-4.041
		c0.947,0.015,1.91,0.073,2.856,0.073c1.573,0,2.921-0.03,3.354-0.073c-0.032,0.175-0.065,0.351-0.065,0.612
		c0,0.307,0.033,0.438,0.065,0.657c-1.22-0.074-3.146-0.176-3.627-0.176c-0.08,1.065-0.08,2.116-0.08,3.181
		c1.396-0.029,2.424-0.059,3.642-0.117c-0.063,0.336-0.079,0.467-0.079,0.656c0,0.161,0.031,0.292,0.079,0.599
		c-1.218-0.089-2.423-0.132-3.642-0.132c0,0.613-0.017,1.24-0.017,1.869c0,0.611,0.017,1.24,0.049,1.822
		c1.203,0,2.439-0.059,3.675-0.189c-0.032,0.203-0.065,0.35-0.065,0.656s0.033,0.453,0.065,0.627
		c-0.577-0.014-1.332-0.072-2.81-0.072c-2.615,0-3.048,0.045-3.401,0.072c0.096-1.283,0.128-2.408,0.128-4.041V9.128L87.667,9.128z"
		/>
	<path fill-rule="evenodd" clip-rule="evenodd" fill="#FFFFFF" d="M100.765,9.128c0-1.633-0.032-2.757-0.128-4.041
		c0.353,0.029,0.786,0.073,1.315,0.073c0.738,0,1.572-0.073,2.343-0.073c1.509,0,2.295,0.219,2.793,0.598
		c0.673,0.511,0.994,1.109,0.994,1.971c0,2.232-1.733,3.122-4.124,3.122h-0.818c0,1.461,0.017,2.918,0.129,4.377
		c-0.354-0.027-0.787-0.072-1.316-0.072s-0.963,0.045-1.315,0.072c0.096-1.283,0.128-2.408,0.128-4.041V9.128L100.765,9.128z
		 M103.846,5.919c-0.256,0-0.497,0-0.674,0.014c-0.016,1.372-0.032,2.744-0.032,4.101c1.075,0,2.407-0.263,2.407-2.146
		C105.547,6.401,104.761,5.919,103.846,5.919L103.846,5.919z"/>
	<path fill-rule="evenodd" clip-rule="evenodd" fill="#FFFFFF" d="M117.954,15.154c-0.514-0.027-0.964-0.072-1.413-0.072
		s-0.915,0.045-1.363,0.072c-0.338-0.992-0.706-1.998-1.107-2.99c-0.689-0.016-1.364-0.029-2.055-0.029
		c-0.562,0-1.107,0.014-1.668,0.029c-0.434,0.992-0.787,1.984-1.092,2.99c-0.257-0.027-0.497-0.072-0.754-0.072
		s-0.498,0.045-0.803,0.072c0.786-1.619,3.193-6.814,4.573-10.14c0.209,0.029,0.401,0.073,0.609,0.073
		c0.21,0,0.401-0.044,0.61-0.073C114.856,8.34,116.734,12.777,117.954,15.154L117.954,15.154z M113.701,11.303
		c-0.466-1.182-0.915-2.335-1.429-3.473c-0.546,1.138-1.043,2.291-1.508,3.473H113.701L113.701,11.303z"/>
	<path fill-rule="evenodd" clip-rule="evenodd" fill="#FFFFFF" d="M122.288,10.515h-0.145v0.599c0,1.633,0.032,2.758,0.128,4.041
		c-0.354-0.027-0.785-0.072-1.315-0.072c-0.529,0-0.962,0.045-1.315,0.072c0.097-1.283,0.128-2.408,0.128-4.041V9.128
		c0-1.633-0.031-2.757-0.128-4.041c0.354,0.029,0.786,0.073,1.315,0.073c0.578,0,1.268-0.073,2.359-0.073
		c1.62,0,2.215,0.131,2.775,0.497c0.642,0.422,1.044,1.064,1.044,1.925c0,1.417-0.899,2.321-2.487,2.685
		c1.026,1.648,2.246,3.312,3.418,4.96c-0.481-0.027-0.963-0.072-1.444-0.072s-0.979,0.045-1.461,0.072L122.288,10.515
		L122.288,10.515z M122.191,5.919c-0.031,1.327-0.048,2.641-0.048,3.969c0.128,0.014,0.24,0.029,0.353,0.029
		c1.413,0,2.183-0.714,2.183-2.086C124.679,6.108,123.941,5.919,122.191,5.919L122.191,5.919z"/>
	<path fill-rule="evenodd" clip-rule="evenodd" fill="#FFFFFF" d="M130.05,9.128c0-1.633-0.031-2.757-0.128-4.041
		c0.352,0.029,0.786,0.073,1.315,0.073s0.963-0.044,1.316-0.073c-0.097,1.284-0.129,2.408-0.129,4.041v1.985
		c0,1.633,0.032,2.758,0.129,4.041c-0.354-0.027-0.787-0.072-1.316-0.072s-0.964,0.045-1.315,0.072
		c0.097-1.283,0.128-2.408,0.128-4.041V9.128L130.05,9.128z"/>
	<path fill-rule="evenodd" clip-rule="evenodd" fill="#FFFFFF" d="M140.514,7.057c-0.338-0.832-0.963-1.256-1.941-1.256
		c-0.979,0-1.67,0.614-1.67,1.314c0,2.159,4.879,1.62,4.879,4.932c0,1.955-1.701,3.299-4.252,3.299
		c-1.156,0-2.118-0.307-2.584-0.629c0.209-0.672,0.354-1.197,0.466-1.854h0.305c0.176,0.848,0.914,1.576,2.214,1.576
		c1.252,0,1.878-0.67,1.878-1.488c0-2.203-4.782-1.619-4.782-4.932c0-2.013,1.701-3.122,3.61-3.122c1.155,0,2.021,0.277,2.632,0.715
		c-0.193,0.453-0.306,0.803-0.514,1.445H140.514L140.514,7.057z"/>
	<path fill-rule="evenodd" clip-rule="evenodd" fill="#FFFFFF" d="M163.791-0.147L153.6,5.384c0,0,10.17,2.062,10.17,9.295
		C163.77,14.68,176.978,3.771,163.791-0.147L163.791-0.147z"/>
	<path fill-rule="evenodd" clip-rule="evenodd" fill="#FFFFFF" d="M163.782,14.689L163.782,14.689
		c5.385-0.344,10.493-3.293,9.657-6.094l2.309,3.006c0,0-1.036,6.695-11.966,8.711c-10.93-2.016-11.966-8.711-11.966-8.711
		l2.31-3.006c-0.837,2.801,4.272,5.75,9.654,6.094H163.782L163.782,14.689z"/>
</g>
</svg>
